<svg xmlns="http://www.w3.org/2000/svg" version="1.1" width="0px" height="0px" display="none">
	<defs>
		<symbol id="icon-fb" viewBox="0 0 64 64">
			<title>facebook</title>
			<path d="M44.401 8.58v7.578c-9.414 0-8.698-0.442-8.698 9.559h8.411l-1.119 8.497h-7.292V56H26.92V34.213h-7.321v-8.497h7.321 C26.92 18.7 25 5 44.4 8.58z" />
		</symbol>
		<symbol id="icon-tw" viewBox="0 0 64 64">
			<title>twitter</title>
			<path d="M51.087 22.197C52.153 45.5 26.7 59.1 8 47.065c5.062 0.6 10.322-0.74 14.58-4.078 c-4.31-0.078-7.947-2.925-9.2-6.837c1.549 0.3 3 0.2 4.447-0.171c-4.336-0.869-7.899-4.668-7.899-9.778 c1.329 0.7 2.8 1.2 4.5 1.231c-4.403-2.943-5.62-8.745-3.047-13.147c4.855 6 12.1 9.9 20.3 10.3 c-2.307-9.887 9.991-16.219 16.78-8.982c2.244-0.442 4.353-1.26 6.256-2.391c-0.737 2.3-2.297 4.229-4.332 5.4 c1.992-0.238 3.889-0.766 5.657-1.55C54.679 19.1 53 20.8 51.1 22.197z" />
		</symbol>
		<symbol id="icon-gh" viewBox="0 0 64 64">
			<title>github</title>
			<path d="M23.154 44.38c-4.663 0-4.627-10.617 0-10.617C27.788 33.8 27.8 44.4 23.2 44.38z M40.846 44.4 c-4.635 0-4.655-10.617 0-10.617C45.48 33.8 45.5 44.4 40.8 44.38z M48.809 39.071c0-4.252-2.548-7.962-7.077-7.962 c-2.276 0-5.813 0.885-9.731 0.885c-3.937 0-7.375-0.885-9.731-0.885c-4.549 0-7.076 3.737-7.076 8 c0 4.3 2.1 7.4 6.5 8.751c4.68 1.4 15.8 1.5 20.6 0c4.449-1.37 6.497-4.522 6.497-8.751H48.809z M55 34.2 c0 9.169-3.161 14.705-13.199 16.515c-6.446 1.168-16.632 0.942-21.576-0.523C12.612 47.9 9 44.1 9 34.2 c0-4.368 1.252-8.018 3.759-10.949c-1.104-3.353-1.073-7.253 0.663-10.726c2.929 0 5.4 0.5 10.5 4.5 c5.043-1.199 11.038-1.352 16.283-0.082c4.924-3.846 7.395-4.423 10.394-4.423c1.715 3.4 1.8 7.3 0.7 10.7 c2.508 2.9 3.8 6.6 3.8 11.004L55 34.207z" />
		</symbol>
		<symbol id="icon-sc" viewBox="0 0 64 64">
			<title>soundcloud</title>
			<path d="M33.47 46.786V18.313c9.093-3.766 19.2 2.6 19.8 12.386C58.431 29 64 32.9 64 38.6 c0 4.548-3.679 8.225-8.249 8.225C48.323 46.8 40.9 46.8 33.5 46.786L33.47 46.786z M5.867 30.3 c0.412 5.7 0.4 10.5 0 16.234c-0.46 0-0.895 0-1.355 0c-0.435-5.662-0.435-10.572 0-16.234 C5.35 30.3 3.3 30.3 5.9 30.312z M30.954 20.248c0.484 10.5 0.5 16.1 0 26.538h-1.379 c-0.412-9.023-0.412-17.515 0-26.538C31.182 20.2 29.3 20.2 31 20.248z M26.768 24.7 c0.412 7.6 0.4 14.6 0 22.135H25.39c-0.46-8.732-0.46-13.402 0-22.135C26.908 24.7 25.3 24.7 26.8 24.651z M22.607 23.297c0.387 8 0.4 15.5 0 23.489h-1.379c-0.484-9.265-0.484-14.2 0-23.489 C22.747 23.3 21.1 23.3 22.6 23.297z M18.422 23.732c0.46 9.1 0.5 14 0 23.054c-0.459 0-0.919 0-1.378 0 c-0.412-7.886-0.412-15.167 0-23.054C18.65 23.7 16.8 23.7 18.4 23.732z M14.237 26.296c0.411 7.1 0.4 13.5 0 20.5 h-1.379c-0.411-7.04-0.411-13.45 0-20.49C14.466 26.3 12.6 26.3 14.2 26.296z M10.052 30.7 c0.435 5.6 0.4 10.5 0 16.111c-0.46 0-0.919 0-1.379 0c-0.459-6.362-0.459-9.748 0-16.111 C10.191 30.7 8.5 30.7 10.1 30.675z M1.706 32.586c0.459 4.7 0.5 7.2 0 11.878c-0.46 0-0.92 0-1.379 0 c-0.436-4.233-0.436-7.646 0-11.878C1.934 32.6 0.1 32.6 1.7 32.586z" />
		</symbol>
		<symbol id="icon-in" viewBox="0 0 64 64">
			<title>linkedin</title>
			<path d="M18.912 23.971v30.961H8.602V23.971H18.912z M13.696 20.485c-7.576 0-7.654-11.417 0.125-11.417 C21.437 9.1 21.6 20.5 13.7 20.485z M55.999 37.185v17.747H45.72V38.373c0-10.266-10.841-8.388-10.841-0.72v17.278H24.601 V23.971H34.88v4.5h-0.063c2.334-3.734 5.289-5.219 9.343-5.219C50.895 23.3 56 27.6 56 37.188L55.999 37.185z" />
		</symbol>
		<symbol id="icon-rm" viewBox="0 0 64 64">
			<title>resume</title>
			<path d="M38.61 11.111C37.898 10.4 36.9 10 35.9 10H19.293c-2.095 0-3.793 1.698-3.793 3.793v36.415 c0 2.1 1.7 3.8 3.8 3.792h25.415c2.094 0 3.792-1.698 3.792-3.792V22.572c0-1.007-0.398-1.972-1.11-2.683L38.61 11.111z M43 45.75H21V43h22V45.75z M43 40.25H21V37.5h22V40.25z M43 34.75H21V32h22V34.75z M43 29.25H21V26.5h22V29.25z M37.5 21v-8.25 L45.75 21H37.5z" />
		</symbol>

		<symbol id="icon-location" viewBox="0 0 256 256">
			<title>location</title>
			<path d="M128 0C83.813 0 48 35.8 48 80c0 80 80 176 80 176s80-96 80-176C208 35.8 172.2 0 128 0z M128 128 c-26.516 0-48-21.488-48-48s21.484-48 48-48s48 21.5 48 48S154.516 128 128 128z" />
		</symbol>
		<symbol id="icon-link" viewBox="0 0 256 256">
			<title>link</title>
			<path d="M109.621 159.679c-3.409 0-6.817-1.296-9.418-3.888c-24.356-24.365-24.356-63.989 0-88.346l49.162-49.153 C161.166 6.5 176.9 0 193.5 0c16.69 0 32.4 6.5 44.2 18.292c24.356 24.4 24.4 64 0 88.338l-22.484 22.5 c-5.201 5.2-13.618 5.2-18.819 0c-5.209-5.201-5.209-13.621 0-18.825l22.469-22.472c13.979-13.972 13.979-36.708 0-50.681 c-6.77-6.769-15.771-10.496-25.349-10.496c-9.578 0-18.58 3.728-25.35 10.496l-49.161 49.153c-13.979 13.972-13.979 36.7 0 50.7 c5.201 5.2 5.2 13.6 0 18.833C116.438 158.4 113 159.7 109.6 159.679z M62.452 256 c-16.691 0-32.382-6.495-44.184-18.288c-24.357-24.368-24.357-63.985 0-88.338l22.484-22.476c5.201-5.204 13.635-5.204 18.8 0 c5.201 5.2 5.2 13.6 0 18.829l-22.468 22.465c-13.979 13.983-13.979 36.7 0 50.688c6.769 6.8 15.8 10.5 25.3 10.5 s18.58-3.729 25.349-10.496l49.162-49.152c13.979-13.969 13.979-36.709 0-50.686c-5.201-5.204-5.201-13.624 0-18.828 c5.2-5.2 13.626-5.2 18.8 0c24.357 24.4 24.4 64 0 88.345l-49.161 49.153C94.834 249.5 79.1 256 62.5 256z" />
		</symbol>

		<symbol id="icon-lang" viewBox="0 0 256 256">
			<title>language</title>
			<path d="M73.332 55.974c6.357-4.307 15.893-6.46 28.608-6.46V65.51c-6.68 0.294-11.529 1.656-14.546 4.1 c-3.019 2.433-4.526 6.051-4.526 10.854v26.104c0 11.661-6.71 18.633-20.127 20.919v1.055c13.417 2.1 20.1 9.1 20.1 20.8 v26.279c0 4.8 1.5 8.4 4.5 10.897s7.851 3.8 14.6 3.867v16.084c-13.535-0.117-23.277-2.416-29.224-6.898 c-5.948-4.482-8.921-11.734-8.921-21.753v-25.049c0-10.898-7.793-16.348-23.379-16.348V119.65c7.91 0 13.784-1.332 17.622-3.999 c3.837-2.665 5.757-6.724 5.757-12.173V76.145C63.796 67 67 60.3 73.3 55.974z M199.016 116 c-3.722-2.461-5.581-6.62-5.581-12.48V78.254c0-10.195-2.856-17.534-8.569-22.017s-15.104-6.724-28.169-6.724V65.51 c6.444 0.3 11 1.7 13.7 4.087c2.666 2.4 4 6.1 4 10.854v26.104c0 11.7 6.7 18.6 20.1 20.919v1.055 c-7.207 1.23-12.364 3.779-15.469 7.646c-3.106 3.867-4.658 9.346-4.658 16.436v23.027c0 5.39-1.554 9.185-4.658 11.4 c-3.106 2.197-7.442 3.324-13.008 3.383v16.084c12.832-0.117 22.162-2.314 27.993-6.592c5.83-4.277 8.745-10.986 8.745-20.126 v-26.982c0-5.918 1.89-10.121 5.669-12.613c3.779-2.489 9.272-3.734 16.479-3.734V119.65 C208.258 119.7 202.7 118.4 199 115.959z" />
		</symbol>
		<symbol id="icon-tech" viewBox="0 0 256 256">
			<title>technology</title>
			<path d="M192 48H64c-8.836 0-16 7.164-16 16v128c0 8.8 7.2 16 16 16h128c8.837 0 16-7.163 16-16V64 C208 55.2 200.8 48 192 48z M176 164c0 6.627-5.373 12-12 12H92c-6.627 0-12-5.373-12-12V92c0-6.627 5.373-12 12-12h72 c6.627 0 12 5.4 12 12V164z M160 106v44c0 5.522-4.478 10-10 10h-44c-5.523 0-10-4.478-10-10v-44c0-5.523 4.477-10 10-10h44 C155.522 96 160 100.5 160 106z M72 38V22c0-3.313 2.687-6 6-6h4c3.313 0 6 2.7 6 6v16c0 3.313-2.687 6-6 6h-4 C74.687 44 72 41.3 72 38z M104 38V22c0-3.313 2.687-6 6-6h4c3.313 0 6 2.7 6 6v16c0 3.313-2.687 6-6 6h-4 C106.687 44 104 41.3 104 38z M136 38V22c0-3.313 2.687-6 6-6h4c3.313 0 6 2.7 6 6v16c0 3.313-2.687 6-6 6h-4 C138.687 44 136 41.3 136 38z M168 38V22c0-3.313 2.687-6 6-6h4c3.313 0 6 2.7 6 6v16c0 3.313-2.687 6-6 6h-4 C170.687 44 168 41.3 168 38z M88 218v16c0 3.313-2.687 6-6 6h-4c-3.313 0-6-2.687-6-6v-16c0-3.313 2.687-6 6-6h4 C85.313 212 88 214.7 88 218z M120 218v16c0 3.313-2.687 6-6 6h-4c-3.313 0-6-2.687-6-6v-16c0-3.313 2.687-6 6-6h4 C117.313 212 120 214.7 120 218z M152 218v16c0 3.313-2.687 6-6 6h-4c-3.313 0-6-2.687-6-6v-16c0-3.313 2.687-6 6-6h4 C149.313 212 152 214.7 152 218z M184 218v16c0 3.313-2.687 6-6 6h-4c-3.313 0-6-2.687-6-6v-16c0-3.313 2.687-6 6-6h4 C181.313 212 184 214.7 184 218z M44 174v4c0 3.313-2.687 6-6 6H22c-3.313 0-6-2.687-6-6v-4c0-3.313 2.687-6 6-6h16 C41.314 168 44 170.7 44 174z M44 142v4c0 3.313-2.687 6-6 6H22c-3.313 0-6-2.687-6-6v-4c0-3.313 2.687-6 6-6h16 C41.314 136 44 138.7 44 142z M44 110v4c0 3.313-2.687 6-6 6H22c-3.313 0-6-2.687-6-6v-4c0-3.313 2.687-6 6-6h16 C41.314 104 44 106.7 44 110z M44 78v4c0 3.313-2.687 6-6 6H22c-3.313 0-6-2.687-6-6v-4c0-3.313 2.687-6 6-6h16 C41.314 72 44 74.7 44 78z M240 174v4c0 3.313-2.687 6-6 6h-16c-3.313 0-6-2.687-6-6v-4c0-3.313 2.687-6 6-6h16 C237.313 168 240 170.7 240 174z M240 142v4c0 3.313-2.687 6-6 6h-16c-3.313 0-6-2.687-6-6v-4c0-3.313 2.687-6 6-6h16 C237.313 136 240 138.7 240 142z M240 110v4c0 3.313-2.687 6-6 6h-16c-3.313 0-6-2.687-6-6v-4c0-3.313 2.687-6 6-6h16 C237.313 104 240 106.7 240 110z M240 78v4c0 3.313-2.687 6-6 6h-16c-3.313 0-6-2.687-6-6v-4c0-3.313 2.687-6 6-6h16 C237.313 72 240 74.7 240 78z" />
		</symbol>
		<symbol id="icon-tool" viewBox="0 0 256 256">
			<title>software</title>
			<path d="M77.748 196.488l-9.899 18.385l-26.87 12.729l-8.485-8.485 l12.728-26.87l18.385-9.899l1.414 1.414l50.912-50.911l-9.899-9.899l14.504-14.505c7.362 1.2 15.174-1.031 20.852-6.709 c5.677-5.677 7.909-13.489 6.709-20.852l54.103-54.102l31.112 31.112l-54.102 54.103c-7.362-1.2-15.175 1.032-20.852 6.7 c-5.678 5.678-7.91 13.489-6.709 20.852l-14.505 14.504l-9.899-9.899l-50.912 50.911L77.748 196.488z M104.618 138.506l5.657-5.656 l-9.899-9.899l18.781-18.782l2.023 0.33c2.026 0.3 4.1 0.3 6.1 0.056l-11.561-11.563 c6.318-17.045 2.642-36.955-11.054-50.651C92.057 29.8 74.3 25.6 58.3 29.921l23.732 23.732l-5.657 28.284l-28.285 5.7 L24.317 63.862c-4.273 16.011-0.143 33.8 12.4 46.359c13.696 13.7 33.6 17.4 50.7 11.055L104.618 138.506z M217.755 223.358c-7.81 7.811-20.474 7.811-28.284 0l-67.882-67.882l5.657-5.657l9.899 9.899l18.782-18.781l-0.33-2.023 c-0.331-2.025-0.339-4.065-0.055-6.052l62.198 62.199c0.005 0 0 0 0 0 C225.565 202.9 225.6 215.5 217.8 223.358z M211.859 217.463l3.019-11.265l-8.247-8.246l-11.265 3.018l-3.018 11.3 l8.246 8.247L211.859 217.463z" />
		</symbol>

		<symbol id="icon-sun" viewBox="0 0 350 350">
			<title>sun</title>
			<circle fill="rgb( 70, 100, 80)" cx="350" cy="0" r="350" />
			<circle fill="rgb( 95, 110, 90)" cx="350" cy="0" r="300" />
			<circle fill="rgb(125, 125, 90)" cx="350" cy="0" r="250" />
			<circle fill="rgb(125, 110, 90)" cx="350" cy="0" r="200" />
			<circle fill="rgb(120,  95, 90)" cx="350" cy="0" r="150" />
		</symbol>
		<symbol id="icon-mail" viewBox="0 0 256 256">
			<title>mail</title>
			<path d="M232 24H24C10.8 24 0 34.8 0 48v160c0 13.2 10.8 24 24 24h208c13.2 0 24-10.8 24-24V48C256 34.8 245.2 24 232 24z M99.685 129.593L32 182.316V56.905L99.685 129.593L99.685 129.593z M44.095 56h167.811L128 119L44.095 56z M102.322 132.4 L128 160l25.678-27.575L206.316 200H49.684L102.322 132.425L102.322 132.425z M156.314 129.593L224 56.905v125.411L156.314 129.6 L156.314 129.593z" />
		</symbol>

		<symbol id="icon-scroller" viewBox="0 0 64 64">
			<title>scroller</title>
			<path d="M29.492 28.723c1.379-0.906 3.637-0.906 5 0l24.984 16.4C60.871 46 62 48.1 62 49.77V61 c0 1.65-1.129 2.259-2.508 1.354L34.508 45.954c-1.379-0.905-3.636-0.905-5.016 0L4.508 62.354C3.128 63.3 2 62.6 2 61V49.77 c0-1.65 1.128-3.741 2.508-4.646L29.492 28.723z M34.508 1.646c-1.379-0.906-3.636-0.906-5.016 0L4.508 18 C3.128 19 2 21 2 22.692v11.23c0 1.6 1.1 2.3 2.5 1.354l24.984-16.399c1.379-0.905 3.637-0.905 5 0 l24.984 16.399C60.871 36.2 62 35.6 62 33.923v-11.23c0-1.65-1.129-3.741-2.508-4.646L34.508 1.646z" />
		</symbol>
	</defs>
</svg>
